<svg width="1505" height="234" viewBox="0 0 1505 234" fill="none" xmlns="http://www.w3.org/2000/svg">
<path d="M0.504 129.624C0.504 109.656 4.824 91.896 13.464 76.344C22.104 60.6 34.104 48.408 49.464 39.768C65.016 30.936 82.584 26.52 102.168 26.52C126.168 26.52 146.712 32.856 163.8 45.528C180.888 58.2 192.312 75.48 198.072 97.368H143.928C139.896 88.92 134.136 82.488 126.648 78.072C119.352 73.656 111 71.448 101.592 71.448C86.424 71.448 74.136 76.728 64.728 87.288C55.32 97.848 50.616 111.96 50.616 129.624C50.616 147.288 55.32 161.4 64.728 171.96C74.136 182.52 86.424 187.8 101.592 187.8C111 187.8 119.352 185.592 126.648 181.176C134.136 176.76 139.896 170.328 143.928 161.88H198.072C192.312 183.768 180.888 201.048 163.8 213.72C146.712 226.2 126.168 232.44 102.168 232.44C82.584 232.44 65.016 228.12 49.464 219.48C34.104 210.648 22.104 198.456 13.464 182.904C4.824 167.352 0.504 149.592 0.504 129.624ZM386.919 70.296V231H337.671V209.112C332.679 216.216 325.863 221.976 317.223 226.392C308.775 230.616 299.367 232.728 288.999 232.728C276.711 232.728 265.863 230.04 256.455 224.664C247.047 219.096 239.751 211.128 234.567 200.76C229.383 190.392 226.791 178.2 226.791 164.184V70.296H275.751V157.56C275.751 168.312 278.535 176.664 284.103 182.616C289.671 188.568 297.159 191.544 306.567 191.544C316.167 191.544 323.751 188.568 329.319 182.616C334.887 176.664 337.671 168.312 337.671 157.56V70.296H386.919ZM471.542 97.08C477.302 88.248 484.502 81.336 493.142 76.344C501.782 71.16 511.382 68.568 521.942 68.568V120.696H508.406C496.118 120.696 486.902 123.384 480.758 128.76C474.614 133.944 471.542 143.16 471.542 156.408V231H422.294V70.296H471.542V97.08ZM594.729 97.08C600.489 88.248 607.689 81.336 616.329 76.344C624.969 71.16 634.569 68.568 645.129 68.568V120.696H631.593C619.305 120.696 610.089 123.384 603.945 128.76C597.801 133.944 594.729 143.16 594.729 156.408V231H545.481V70.296H594.729V97.08ZM693.437 53.592C684.797 53.592 677.693 51.096 672.125 46.104C666.749 40.92 664.061 34.584 664.061 27.096C664.061 19.416 666.749 13.08 672.125 8.08799C677.693 2.90398 684.797 0.311983 693.437 0.311983C701.885 0.311983 708.797 2.90398 714.173 8.08799C719.741 13.08 722.525 19.416 722.525 27.096C722.525 34.584 719.741 40.92 714.173 46.104C708.797 51.096 701.885 53.592 693.437 53.592ZM717.917 70.296V231H668.669V70.296H717.917ZM743.814 150.648C743.814 133.944 747.174 119.352 753.894 106.872C760.806 94.392 770.31 84.792 782.406 78.072C794.694 71.352 808.71 67.992 824.454 67.992C844.614 67.992 861.414 73.272 874.854 83.832C888.486 94.392 897.414 109.272 901.638 128.472H849.222C844.806 116.184 836.262 110.04 823.59 110.04C814.566 110.04 807.366 113.592 801.99 120.696C796.614 127.608 793.926 137.592 793.926 150.648C793.926 163.704 796.614 173.784 801.99 180.888C807.366 187.8 814.566 191.256 823.59 191.256C836.262 191.256 844.806 185.112 849.222 172.824H901.638C897.414 191.64 888.486 206.424 874.854 217.176C861.222 227.928 844.422 233.304 824.454 233.304C808.71 233.304 794.694 229.944 782.406 223.224C770.31 216.504 760.806 206.904 753.894 194.424C747.174 181.944 743.814 167.352 743.814 150.648ZM1086.67 70.296V231H1037.42V209.112C1032.43 216.216 1025.61 221.976 1016.97 226.392C1008.53 230.616 999.117 232.728 988.749 232.728C976.461 232.728 965.613 230.04 956.205 224.664C946.797 219.096 939.501 211.128 934.317 200.76C929.133 190.392 926.541 178.2 926.541 164.184V70.296H975.501V157.56C975.501 168.312 978.285 176.664 983.853 182.616C989.421 188.568 996.909 191.544 1006.32 191.544C1015.92 191.544 1023.5 188.568 1029.07 182.616C1034.64 176.664 1037.42 168.312 1037.42 157.56V70.296H1086.67ZM1171.29 192.984H1235.8V231H1122.04V28.824H1171.29V192.984ZM1284.06 53.592C1275.42 53.592 1268.32 51.096 1262.75 46.104C1257.37 40.92 1254.69 34.584 1254.69 27.096C1254.69 19.416 1257.37 13.08 1262.75 8.08799C1268.32 2.90398 1275.42 0.311983 1284.06 0.311983C1292.51 0.311983 1299.42 2.90398 1304.8 8.08799C1310.37 13.08 1313.15 19.416 1313.15 27.096C1313.15 34.584 1310.37 40.92 1304.8 46.104C1299.42 51.096 1292.51 53.592 1284.06 53.592ZM1308.54 70.296V231H1259.29V70.296H1308.54ZM1442.15 68.568C1460.97 68.568 1475.94 74.712 1487.08 87C1498.41 99.096 1504.07 115.8 1504.07 137.112V231H1455.11V143.736C1455.11 132.984 1452.33 124.632 1446.76 118.68C1441.19 112.728 1433.7 109.752 1424.3 109.752C1414.89 109.752 1407.4 112.728 1401.83 118.68C1396.26 124.632 1393.48 132.984 1393.48 143.736V231H1344.23V70.296H1393.48V91.608C1398.47 84.504 1405.19 78.936 1413.64 74.904C1422.09 70.68 1431.59 68.568 1442.15 68.568Z" fill="#F9F9F9"/>
</svg>
