<svg width="201" height="195" viewBox="0 0 201 195" fill="none" xmlns="http://www.w3.org/2000/svg">
<rect width="198" height="195" rx="10" fill="#0077B7"/>
<path d="M10.032 117.824C10.032 109.472 11.712 102.176 15.072 95.936C18.528 89.696 23.28 84.896 29.328 81.536C35.472 78.176 42.48 76.496 50.352 76.496C60.432 76.496 68.832 79.136 75.552 84.416C82.368 89.696 86.832 97.136 88.944 106.736H62.736C60.528 100.592 56.256 97.52 49.92 97.52C45.408 97.52 41.808 99.296 39.12 102.848C36.432 106.304 35.088 111.296 35.088 117.824C35.088 124.352 36.432 129.392 39.12 132.944C41.808 136.4 45.408 138.128 49.92 138.128C56.256 138.128 60.528 135.056 62.736 128.912H88.944C86.832 138.32 82.368 145.712 75.552 151.088C68.736 156.464 60.336 159.152 50.352 159.152C42.48 159.152 35.472 157.472 29.328 154.112C23.28 150.752 18.528 145.952 15.072 139.712C11.712 133.472 10.032 126.176 10.032 117.824ZM151.076 76.784C160.484 76.784 167.972 79.856 173.54 86C179.204 92.048 182.036 100.4 182.036 111.056V158H157.556V114.368C157.556 108.992 156.164 104.816 153.38 101.84C150.596 98.864 146.852 97.376 142.148 97.376C137.444 97.376 133.7 98.864 130.916 101.84C128.132 104.816 126.74 108.992 126.74 114.368V158H102.116V77.648H126.74V88.304C129.236 84.752 132.596 81.968 136.82 79.952C141.044 77.84 145.796 76.784 151.076 76.784Z" fill="white"/>
</svg>
